<svg xmlns="http://www.w3.org/2000/svg" width="512" height="512" fill="none" viewBox="0 0 512 512">
  <rect width="512" height="512" rx="64" fill="#1a1a2e"/>
  <path fill="#863bff" d="M288 420c-10 14-30 6-30-12V288a36 36 0 0 0-36-36H108c-14 0-22-16-14-28l118-164c16-22 0-56-28-56H120c-14 0-22-16-14-28L210 16c3-4 8-6 14-6h200c14 0 22 16 14 28L320 202c-16 22 0 56 28 56h128c14 0 20 16 12 26L288 420z"/>
  <path fill="#7e14ff" d="M232 360c-8 12-24 6-24-10V248a28 28 0 0 0-28-28H92c-10 0-18-12-12-22l100-140c12-18 0-46-22-46H118c-10 0-18-12-12-22L198 20c2-4 6-8 12-8h168c10 0 18 12 12 22L290 174c-12 18 0 46 22 46h108c10 0 16 12 10 22L232 360z" opacity="0.5"/>
</svg>