<svg xmlns="http://www.w3.org/2000/svg" width="192" height="192" fill="none" viewBox="0 0 192 192">
  <rect width="192" height="192" rx="32" fill="#1a1a2e"/>
  <path fill="#863bff" d="M112 160c-4 5-12 2-12-4v-48a14 14 0 0 0-14-14H42c-5 0-9-6-5-11l46-64c6-9 0-22-11-22H47c-5 0-9-6-5-11L84 5c1-2 3-3 5-3h80c5 0 9 6 5 11l-46 64c-6 9 0 22 11 22h51c5 0 8 6 5 10L112 160z"/>
  <path fill="#7e14ff" d="M92 140c-3 4-9 2-9-3v-40a11 11 0 0 0-11-11H36c-4 0-7-5-4-9l39-54c5-7 0-18-9-18H46c-4 0-7-5-4-9L78 7c1-2 2-3 4-3h64c4 0 7 5 4 9l-39 54c-5 7 0 18 9 18h43c3 0 6 5 4 8L92 140z" opacity="0.6"/>
</svg>